<?xml version="1.0" encoding="iso-8859-1"?>
<!-- Generator: Adobe Illustrator 16.0.0, SVG Export Plug-In . SVG Version: 6.00 Build 0)  -->
<!DOCTYPE svg PUBLIC "-//W3C//DTD SVG 1.1//EN" "http://www.w3.org/Graphics/SVG/1.1/DTD/svg11.dtd">
<svg version="1.1" xmlns="http://www.w3.org/2000/svg" xmlns:xlink="http://www.w3.org/1999/xlink" x="0px" y="0px" width="64px"
	 height="64px" viewBox="0 0 64 64" style="enable-background:new 0 0 64 64;" xml:space="preserve">
<g id="Layer_210">
	<g>
		<g>
			<circle style="fill:#67DDE0;" cx="32" cy="32" r="32"/>
			<path style="fill:#FFFFFF;" d="M53,22c0,14-21,41-21,41S11,36,11,22c0-11.598,9.402-21,21-21S53,10.402,53,22z"/>
			<path style="fill:none;stroke:#4D5152;stroke-width:2;stroke-linejoin:round;stroke-miterlimit:10;" d="M53,22c0,14-21,41-21,41
				S11,36,11,22c0-11.598,9.402-21,21-21S53,10.402,53,22z"/>
			<circle style="fill:#FFB957;" cx="32" cy="22" r="15"/>
			<path style="fill:none;stroke:#4D5152;stroke-width:2;stroke-linejoin:round;stroke-miterlimit:10;" d="M17,22
				c0-8.284,6.716-15,15-15s15,6.716,15,15"/>
			<g>
				<path style="fill:none;stroke:#4D5152;stroke-width:2;stroke-miterlimit:10;" d="M32,22c2,1,4,1.791,4,4s-1.791,4-4,4
					s-4-1.791-4-4"/>
				<path style="fill:none;stroke:#4D5152;stroke-width:2;stroke-miterlimit:10;" d="M32,22c-2-1-4-1.791-4-4s1.791-4,4-4
					s4,1.791,4,4"/>
				<line style="fill:none;stroke:#4D5152;stroke-width:2;stroke-miterlimit:10;" x1="32" y1="14" x2="32" y2="11"/>
				<line style="fill:none;stroke:#4D5152;stroke-width:2;stroke-miterlimit:10;" x1="32" y1="30" x2="32" y2="33"/>
			</g>
			
				<line style="fill:none;stroke:#4D5152;stroke-width:2;stroke-linejoin:round;stroke-miterlimit:10;" x1="31" y1="52" x2="33" y2="52"/>
			
				<line style="fill:none;stroke:#4D5152;stroke-width:2;stroke-linejoin:round;stroke-miterlimit:10;" x1="31" y1="48" x2="33" y2="48"/>
			
				<line style="fill:none;stroke:#4D5152;stroke-width:2;stroke-linejoin:round;stroke-miterlimit:10;" x1="31" y1="44" x2="33" y2="44"/>
		</g>
	</g>
</g>
<g id="Layer_1">
</g>
</svg>
