<?xml version="1.0" encoding="iso-8859-1"?>
<!-- Generator: Adobe Illustrator 16.0.0, SVG Export Plug-In . SVG Version: 6.00 Build 0)  -->
<!DOCTYPE svg PUBLIC "-//W3C//DTD SVG 1.1//EN" "http://www.w3.org/Graphics/SVG/1.1/DTD/svg11.dtd">
<svg version="1.1" xmlns="http://www.w3.org/2000/svg" xmlns:xlink="http://www.w3.org/1999/xlink" x="0px" y="0px" width="62px"
	 height="62px" viewBox="0 0 62 62" style="enable-background:new 0 0 62 62;" xml:space="preserve">
<g id="Layer_281">
	<g>
		<g>
			<polygon style="fill:#FFB957;" points="31,55 37,61 40,53 48,56 48,48 56,48 53,40 61,37 55,31 61,25 53,22 56,14 48,14 48,6 
				40,9 37,1 31,7 25,1 22,9 14,6 14,14 6,14 9,22 1,25 7,31 1,37 9,40 6,48 14,48 14,56 22,53 25,61 			"/>
			<g>
				<path style="fill:none;stroke:#4D5152;stroke-width:2;stroke-miterlimit:10;" d="M34,38h-5c-1.656,0-3-1.344-3-3v-8
					c0-1.656,1.344-3,3-3h5"/>
				<line style="fill:none;stroke:#4D5152;stroke-width:2;stroke-miterlimit:10;" x1="27" y1="31" x2="32" y2="31"/>
				<polyline style="fill:none;stroke:#4D5152;stroke-width:2;stroke-linejoin:round;stroke-miterlimit:10;" points="15,39 15,24 
					22,38 22,23 				"/>
				<polyline style="fill:none;stroke:#4D5152;stroke-width:2;stroke-linejoin:round;stroke-miterlimit:10;" points="37,23 37,38 
					42,29 47,38 47,23 				"/>
			</g>
			<polygon style="fill:none;stroke:#4D5152;stroke-width:2;stroke-linejoin:round;stroke-miterlimit:10;" points="31,55 37,61 
				40,53 48,56 48,48 56,48 53,40 61,37 55,31 61,25 53,22 56,14 48,14 48,6 40,9 37,1 31,7 25,1 22,9 14,6 14,14 6,14 9,22 1,25 
				7,31 1,37 9,40 6,48 14,48 14,56 22,53 25,61 			"/>
			
				<line style="fill:none;stroke:#4D5152;stroke-width:2;stroke-linejoin:round;stroke-miterlimit:10;" x1="30" y1="49" x2="32" y2="49"/>
			
				<line style="fill:none;stroke:#4D5152;stroke-width:2;stroke-linejoin:round;stroke-miterlimit:10;" x1="30" y1="13" x2="32" y2="13"/>
		</g>
	</g>
</g>
<g id="Layer_1">
</g>
</svg>
