<?xml version="1.0" encoding="iso-8859-1"?>
<!-- Generator: Adobe Illustrator 16.0.0, SVG Export Plug-In . SVG Version: 6.00 Build 0)  -->
<!DOCTYPE svg PUBLIC "-//W3C//DTD SVG 1.1//EN" "http://www.w3.org/Graphics/SVG/1.1/DTD/svg11.dtd">
<svg version="1.1" xmlns="http://www.w3.org/2000/svg" xmlns:xlink="http://www.w3.org/1999/xlink" x="0px" y="0px" width="58px"
	 height="58px" viewBox="0 0 58 58" style="enable-background:new 0 0 58 58;" xml:space="preserve">
<g id="Layer_140">
	<g>
		<g>
			<polyline style="fill:#ACF0F2;" points="57,19 57,23 1,23 1,19 			"/>
			<polygon style="fill:#FFB957;" points="57,19 1,19 29,1 			"/>
			<polygon style="fill:none;stroke:#4D5152;stroke-width:2;stroke-linejoin:round;stroke-miterlimit:10;" points="57,19 1,19 29,1 
							"/>
			<g>
				<rect x="5" y="27" style="fill:#F5F5F5;" width="6" height="18"/>
				<polyline style="fill:#F5F5F5;" points="13,23 13,27 3,27 3,23 				"/>
				<polyline style="fill:none;stroke:#4D5152;stroke-width:2;stroke-miterlimit:10;" points="13,23 13,27 3,27 3,23 				"/>
				<polyline style="fill:#F5F5F5;" points="3,49 3,45 13,45 13,49 				"/>
				<polyline style="fill:none;stroke:#4D5152;stroke-width:2;stroke-miterlimit:10;" points="3,49 3,45 13,45 13,49 				"/>
				<line style="fill:none;stroke:#4D5152;stroke-width:2;stroke-miterlimit:10;" x1="5" y1="45" x2="5" y2="27"/>
				<line style="fill:none;stroke:#4D5152;stroke-width:2;stroke-miterlimit:10;" x1="11" y1="27" x2="11" y2="45"/>
			</g>
			<g>
				<rect x="19" y="27" style="fill:#F5F5F5;" width="6" height="18"/>
				<polyline style="fill:#F5F5F5;" points="27,23 27,27 17,27 17,23 				"/>
				<polyline style="fill:none;stroke:#4D5152;stroke-width:2;stroke-miterlimit:10;" points="27,23 27,27 17,27 17,23 				"/>
				<polyline style="fill:#F5F5F5;" points="17,49 17,45 27,45 27,49 				"/>
				<polyline style="fill:none;stroke:#4D5152;stroke-width:2;stroke-miterlimit:10;" points="17,49 17,45 27,45 27,49 				"/>
				<line style="fill:none;stroke:#4D5152;stroke-width:2;stroke-miterlimit:10;" x1="19" y1="45" x2="19" y2="27"/>
				<line style="fill:none;stroke:#4D5152;stroke-width:2;stroke-miterlimit:10;" x1="25" y1="27" x2="25" y2="45"/>
			</g>
			<g>
				<rect x="33" y="27" style="fill:#F5F5F5;" width="6" height="18"/>
				<polyline style="fill:#F5F5F5;" points="41,23 41,27 31,27 31,23 				"/>
				<polyline style="fill:none;stroke:#4D5152;stroke-width:2;stroke-miterlimit:10;" points="41,23 41,27 31,27 31,23 				"/>
				<polyline style="fill:#F5F5F5;" points="31,49 31,45 41,45 41,49 				"/>
				<polyline style="fill:none;stroke:#4D5152;stroke-width:2;stroke-miterlimit:10;" points="31,49 31,45 41,45 41,49 				"/>
				<line style="fill:none;stroke:#4D5152;stroke-width:2;stroke-miterlimit:10;" x1="33" y1="45" x2="33" y2="27"/>
				<line style="fill:none;stroke:#4D5152;stroke-width:2;stroke-miterlimit:10;" x1="39" y1="27" x2="39" y2="45"/>
			</g>
			<g>
				<rect x="47" y="27" style="fill:#F5F5F5;" width="6" height="18"/>
				<polyline style="fill:#F5F5F5;" points="55,23 55,27 45,27 45,23 				"/>
				<polyline style="fill:none;stroke:#4D5152;stroke-width:2;stroke-miterlimit:10;" points="55,23 55,27 45,27 45,23 				"/>
				<polyline style="fill:#F5F5F5;" points="45,49 45,45 55,45 55,49 				"/>
				<polyline style="fill:none;stroke:#4D5152;stroke-width:2;stroke-miterlimit:10;" points="45,49 45,45 55,45 55,49 				"/>
				<line style="fill:none;stroke:#4D5152;stroke-width:2;stroke-miterlimit:10;" x1="47" y1="45" x2="47" y2="27"/>
				<line style="fill:none;stroke:#4D5152;stroke-width:2;stroke-miterlimit:10;" x1="53" y1="27" x2="53" y2="45"/>
			</g>
			<rect x="1" y="49" style="fill:#ACF0F2;" width="56" height="8"/>
			<rect x="1" y="49" style="fill:none;stroke:#4D5152;stroke-width:2;stroke-miterlimit:10;" width="56" height="8"/>
			<polyline style="fill:none;stroke:#4D5152;stroke-width:2;stroke-linejoin:round;stroke-miterlimit:10;" points="57,19 57,23 
				1,23 1,19 			"/>
			<circle style="fill:#F28C13;" cx="29" cy="11" r="4"/>
			<line style="fill:none;stroke:#4D5152;stroke-width:2;stroke-miterlimit:10;" x1="1" y1="53" x2="57" y2="53"/>
		</g>
	</g>
</g>
<g id="Layer_1">
</g>
</svg>
